<svg xmlns="http://www.w3.org/2000/svg" width="256" height="256" viewBox="0 0 256 256" version="1.1">
	<path d="M 106.437 4.559 C 80.863 8.858, 58.258 20.629, 39.443 39.443 C 15.549 63.338, 3 93.496, 3.012 127 C 3.039 207.339, 79.518 266.883, 157.066 246.940 C 216.034 231.776, 256.306 174.792, 250.191 115.171 C 244.799 62.601, 208.676 20.532, 157 6.641 C 142.814 2.828, 121.867 1.965, 106.437 4.559 M 108 5.660 C 83.969 10.383, 66.641 18.223, 49.500 32.129 C 28.865 48.869, 15.695 69.430, 8.266 96.500 C 5.700 105.853, 5.522 107.793, 5.519 126.500 C 5.517 145.055, 5.707 147.186, 8.157 156 C 14.744 179.705, 24.351 196.428, 40.949 213.079 C 63.566 235.770, 93.771 248.156, 126.500 248.160 C 186.536 248.167, 236.871 205.663, 246.634 146.717 C 256.065 89.776, 224.594 34.282, 170.732 12.877 C 156.506 7.224, 148.430 5.791, 129 5.472 C 118.825 5.305, 109.375 5.390, 108 5.660 M 115.769 17.013 C 88.954 20.272, 67.472 30.532, 48.890 48.955 C 27.891 69.775, 16.714 96.755, 16.766 126.500 C 16.820 157.795, 29.148 186.191, 51.772 207.131 C 65.909 220.215, 81.618 228.545, 101.583 233.544 C 111.684 236.073, 113.212 236.191, 129.881 235.718 C 145.724 235.268, 148.458 234.922, 157 232.286 C 194.251 220.788, 221.482 193.315, 232.614 156 C 235.299 147.001, 235.449 145.472, 235.474 127 C 235.498 108.872, 235.316 106.867, 232.879 98.500 C 223.451 66.132, 203.771 42.047, 175.339 28.078 C 157.078 19.107, 133.924 14.806, 115.769 17.013 M 118.746 57.022 C 96.420 62.663, 82.897 87.427, 89.884 109.875 C 96.164 130.053, 113.314 141.411, 133.500 138.761 C 150.255 136.561, 163.757 122.715, 167.200 104.201 C 170.392 87.037, 160.480 67.792, 144.361 59.857 C 139.476 57.452, 136.577 56.747, 130.351 56.449 C 126.033 56.242, 120.811 56.500, 118.746 57.022 M 85.193 152.591 C 72.854 158.740, 63.689 174.625, 62.310 192.250 L 61.704 200 127.999 200 L 194.293 200 193.666 192.581 C 192.390 177.485, 185.321 163.154, 175.522 155.797 C 168.379 150.434, 166.060 150.176, 159.766 154.049 C 156.896 155.815, 151.612 158.426, 148.024 159.850 C 142.138 162.188, 140.180 162.441, 128 162.441 C 115.621 162.441, 113.919 162.212, 107.500 159.682 C 103.650 158.165, 98.179 155.389, 95.343 153.513 L 90.186 150.103 85.193 152.591" stroke="none" fill="#b51a00" fill-rule="evenodd"/>
</svg>